<?xml version="1.0" encoding="utf-8"?>
<!-- Generator: Adobe Illustrator 21.0.0, SVG Export Plug-In . SVG Version: 6.00 Build 0)  -->
<svg version="1.1" id="Layer_1" xmlns="http://www.w3.org/2000/svg" xmlns:xlink="http://www.w3.org/1999/xlink" x="0px" y="0px"
	 viewBox="0 0 100.8 100.8" style="enable-background:new 0 0 100.8 100.8;" xml:space="preserve">
<style type="text/css">
	.st0{fill:#D3BE91;}
</style>
<title>Artboard 1</title>
<path class="st0" d="M95.6,55.6l-4.2-12.4l-0.2-0.4l0,0l-0.3-0.5h-0.1L90.3,42h-0.1L50.9,18.3c-0.8-0.5-1.8-0.5-2.6,0L11.9,40.6
	h-0.1l-0.4,0.3h-0.1L11,41.2h-0.1L5.3,53c-0.6,1.2-0.2,2.7,1,3.3L53,82.6c0.8,0.5,1.7,0.5,2.5,0l38.9-24
	C95.5,58,95.9,56.8,95.6,55.6z M49.6,23.5L84.1,44L53.6,62.8L18.1,42.7L49.6,23.5z M54.3,77.3L11,53l3.3-6.8l38.1,21.7
	c0.8,0.5,1.7,0.5,2.5,0l32.7-20.2l2.5,7.6L54.3,77.3z"/>
<path class="st0" d="M45.3,37.3l5-3.2l5.3,3.6c1.2,0.8,2.7,0.5,3.5-0.7c0.8-1.2,0.5-2.7-0.7-3.5l0,0l-6.7-4.5
	c-0.8-0.5-1.9-0.5-2.7,0l-6.5,4c-1.2,0.7-1.6,2.3-0.9,3.5S44.1,38,45.3,37.3z"/>
<path class="st0" d="M58.4,55.4c1.4,0,2.5-1.1,2.6-2.5c0-0.9-0.4-1.7-1.2-2.2l-6.7-4.4c-0.8-0.5-1.9-0.5-2.7,0l-6.2,3.9
	c-1,1-0.9,2.6,0.1,3.6c0.7,0.6,1.7,0.9,2.5,0.6l4.9-3l5.3,3.6C57.4,55.3,57.9,55.4,58.4,55.4z"/>
<path class="st0" d="M56.3,45.4c0.8,1.1,2.4,1.4,3.5,0.6c0,0,0,0,0,0l4.6-3.2l5.2,3.6c1.2,0.8,2.7,0.5,3.5-0.7
	c0.8-1.2,0.5-2.7-0.7-3.5l-6.7-4.5c-0.9-0.6-2-0.6-2.8,0l-6,4.2C55.9,42.6,55.6,44.2,56.3,45.4C56.3,45.3,56.3,45.3,56.3,45.4z"/>
<path class="st0" d="M46.1,45.7c0.8-1.2,0.5-2.7-0.7-3.5c0,0,0,0,0,0l-6.7-4.5c-0.8-0.5-1.9-0.5-2.7,0l-6.5,4
	c-1.1,0.9-1.2,2.5-0.3,3.6c0.7,0.8,1.9,1.1,2.9,0.7l5-3.1l5.3,3.6C43.7,47.2,45.3,46.9,46.1,45.7C46,45.7,46.1,45.7,46.1,45.7z"/>
</svg>
