<svg id="Layer_1" data-name="Layer 1" xmlns="http://www.w3.org/2000/svg" width="1.4in" height="1.4in" viewBox="0 0 100 100"><title>Artboard 1</title><path d="M94.8,55.2,90.6,42.9l-.2-.4h0l-.3-.5h-.1l-.4-.3h-.1L50.5,18.2a2.5,2.5,0,0,0-2.6,0L11.8,40.3h-.1l-.4.3h-.1l-.3.3h-.1L5.3,52.6a2.5,2.5,0,0,0,1,3.3l46.3,26a2.5,2.5,0,0,0,2.5,0L93.7,58.1A2.5,2.5,0,0,0,94.8,55.2ZM49.2,23.3,83.4,43.7,53.2,62.3,18,42.4Zm4.7,53.4-43-24.1,3.3-6.7L52,67.4a2.5,2.5,0,0,0,2.5,0L86.9,47.4l2.5,7.5Z"/><path d="M44.9,37l5-3.2,5.3,3.6A2.5,2.5,0,0,0,58,33.2l-6.6-4.5a2.5,2.5,0,0,0-2.7,0l-6.4,4A2.5,2.5,0,0,0,44.9,37Z"/><path d="M57.9,55a2.5,2.5,0,0,0,1.4-4.6L52.7,46a2.5,2.5,0,0,0-2.7,0l-6.2,3.9A2.5,2.5,0,0,0,46.4,54l4.9-3,5.3,3.6A2.5,2.5,0,0,0,57.9,55Z"/><path d="M55.9,45a2.5,2.5,0,0,0,3.5.6l4.6-3.2L69.2,46a2.5,2.5,0,0,0,2.8-4.2l-6.6-4.5a2.5,2.5,0,0,0-2.8,0l-6,4.2A2.5,2.5,0,0,0,55.9,45Z"/><path d="M45.7,45.3a2.5,2.5,0,0,0-.7-3.5l-6.6-4.5a2.5,2.5,0,0,0-2.7,0l-6.4,4a2.5,2.5,0,0,0,2.6,4.2l5-3.1L42.2,46a2.5,2.5,0,0,0,3.5-.7Z"/></svg>